<svg xmlns="http://www.w3.org/2000/svg" width="71" height="71" viewBox="0 0 71 71">
    <defs>
        <clipPath id="clip-path"/>
        <style>
            .cls-3{fill:#bc1434}
        </style>
    </defs>
    <g id="icon_vision_03" clip-path="url(#clip-path)">
        <path id="사각형_133" d="M0 0H2.357V3.586H0z" class="cls-3" transform="translate(34.343 .525)"/>
        <path id="패스_3451" d="M0 0l2.242-.016-.024 3.363-2.242.016z" class="cls-3" transform="rotate(-45.01 19.506 -23.321)"/>
        <path id="사각형_135" d="M0 0H3.536V2.391H0z" class="cls-3" transform="translate(17.844 17.261)"/>
        <path id="패스_3452" d="M0 0l3.363-.024-.016 2.242-3.363.024z" class="cls-3" transform="rotate(-44.993 48.423 -11.358)"/>
        <path id="패스_3453" d="M0 0l2.242-.016-.024 3.363-2.242.016z" class="cls-3" transform="rotate(-44.99 58.874 -39.317)"/>
        <path id="사각형_138" d="M0 0H3.536V2.391H0z" class="cls-3" transform="translate(49.665 17.261)"/>
        <path id="패스_3454" d="M0 0l3.363-.024-.016 2.242-3.363.024z" class="cls-3" transform="rotate(-45 31.884 -50.48)"/>
        <path id="사각형_140" d="M0 0H2.357V4.782H0z" class="cls-3" transform="translate(15.486 63.881)"/>
        <path id="패스_3402" d="M58.992 42.739h-2.367a4.566 4.566 0 0 0 .141-1.129v-5.645a1.132 1.132 0 0 0-.5-.939L53.577 33.2a3.645 3.645 0 0 0-5.1 1.034 3.77 3.77 0 0 0-.617 2.068v5.3a4.59 4.59 0 0 0 .14 1.13 2.192 2.192 0 0 1-1.443-.655L40.07 35.5v-2.78l.744-3.017a11.4 11.4 0 0 0 .873-15.942 11.021 11.021 0 0 0-15.717-.885 11.4 11.4 0 0 0-.87 15.938 11.116 11.116 0 0 0 .873.885l.744 3.017V35.6a4.317 4.317 0 0 0-.6.5l-5.891 5.976a2.191 2.191 0 0 1-1.443.655 4.563 4.563 0 0 0 .139-1.122v-5.3a3.7 3.7 0 0 0-3.676-3.728 3.641 3.641 0 0 0-2.04.626l-2.693 1.822a1.132 1.132 0 0 0-.5.939v5.642a4.592 4.592 0 0 0 .141 1.129H7.791A7.857 7.857 0 0 0 0 50.641v11.29a4.49 4.49 0 0 0 4.452 4.516h1.113v5.645h2.226V61.931h13.357v10.161h2.226V51.109l5.26-5.335.422.857a1.112 1.112 0 0 0 1 .624h6.678a1.112 1.112 0 0 0 1-.624l.422-.857 5.26 5.335v20.983h2.226V61.931h13.35v10.161h2.226v-5.645h1.113a4.489 4.489 0 0 0 4.452-4.516v-11.29a7.856 7.856 0 0 0-7.791-7.9m-6.678 1.129a2.245 2.245 0 0 1-2.226-2.258v-2.26h4.452v2.258a2.245 2.245 0 0 1-2.226 2.258m-.776-9.032a1.428 1.428 0 0 1 .8.247l2.2 1.486v.525h-4.45v-.787a1.462 1.462 0 0 1 1.45-1.47M24.487 21.288a8.905 8.905 0 1 1 17.809 0 9.086 9.086 0 0 1-3.192 6.93 1.124 1.124 0 0 0-.365.591l-.652 2.643h-1.155l2.01-12.233a1.128 1.128 0 0 0-.915-1.3 1.1 1.1 0 0 0-.851.21l-3.784 2.879-3.784-2.879a1.1 1.1 0 0 0-1.558.226 1.141 1.141 0 0 0-.208.863l2.01 12.233H28.7l-.652-2.643a1.124 1.124 0 0 0-.365-.591 9.07 9.07 0 0 1-3.192-6.927m7.621 10.161l-1.614-9.825 2.23 1.7a1.1 1.1 0 0 0 1.336 0l2.23-1.7-1.614 9.825zm-3.172 2.256h8.9v6.774h-4.651a4.338 4.338 0 0 0-2.76-5.439 4.21 4.21 0 0 0-1.3-.206h-.191zM27.691 37.7a2.016 2.016 0 0 1 2.878 0 2.086 2.086 0 0 1 0 2.919l-3.856 3.911-2.877-2.92zM14.47 43.868a2.245 2.245 0 0 1-2.226-2.258v-2.258H16.7v2.258a2.245 2.245 0 0 1-2.226 2.258m-.028-8.785a1.438 1.438 0 0 1 2.011.408 1.483 1.483 0 0 1 .244.816v.787h-4.457v-.525zM2.226 61.931v-5.645h3.339v7.9H4.452a2.245 2.245 0 0 1-2.226-2.258m19.248-12.085a1.138 1.138 0 0 0-.326.8v9.032H7.791v-7.9H5.565v2.258H2.226v-3.392A5.611 5.611 0 0 1 7.791 45h3.739a4.393 4.393 0 0 0 5.88 0h1.242a4.392 4.392 0 0 0 3.148-1.326l.461-.468 2.878 2.919zM36.043 45h-5.3l-.446-.906 1.333-1.352h5.529zm3.91-2.882a1.14 1.14 0 0 0 .118-.5V38.69l2.878 2.92-2.879 2.919-.872-.885zm22.378 22.071h-1.113v-7.9h3.339v5.645a2.245 2.245 0 0 1-2.226 2.258m2.226-10.161h-3.339V51.77h-2.226v7.9H45.636v-9.029a1.137 1.137 0 0 0-.326-.8l-3.665-3.718 2.878-2.919.461.468A4.391 4.391 0 0 0 48.132 45h1.242a4.393 4.393 0 0 0 5.88 0h3.738a5.611 5.611 0 0 1 5.565 5.645z" class="cls-3" transform="translate(2.197 -3.481)"/>
        <path id="사각형_141" d="M0 0H2.357V4.782H0z" class="cls-3" transform="translate(53.2 63.881)"/>
    </g>
</svg>
